<svg xmlns="http://www.w3.org/2000/svg" viewBox="0 0 320 320" role="img" aria-labelledby="title desc">
  <title id="title">FlashForge Creator 5 Pro</title>
  <desc id="desc">Stylized enclosed dual-extruder 3D printer silhouette.</desc>
  <defs>
    <linearGradient id="case" x1="0" x2="1" y1="0" y2="1">
      <stop offset="0" stop-color="#4b5563"/>
      <stop offset="1" stop-color="#111827"/>
    </linearGradient>
    <linearGradient id="glass" x1="0" x2="1" y1="0" y2="1">
      <stop offset="0" stop-color="#1f2937"/>
      <stop offset="1" stop-color="#020617"/>
    </linearGradient>
    <linearGradient id="accent" x1="0" x2="1" y1="0" y2="1">
      <stop offset="0" stop-color="#10b981"/>
      <stop offset="1" stop-color="#0f766e"/>
    </linearGradient>
  </defs>
  <rect width="320" height="320" rx="40" fill="#0b1120"/>
  <path d="M73 57h174c14 0 25 11 25 25v180H48V82c0-14 11-25 25-25Z" fill="url(#case)"/>
  <path d="M83 83h154c8 0 14 6 14 14v127c0 8-6 14-14 14H83c-8 0-14-6-14-14V97c0-8 6-14 14-14Z" fill="url(#glass)" stroke="#6b7280" stroke-width="5"/>
  <path d="M91 105h138v111H91z" fill="#020617"/>
  <path d="M108 118h104v9H108z" fill="#9ca3af"/>
  <path d="M119 126h34v24h-34z" fill="#374151"/>
  <path d="M168 126h34v24h-34z" fill="#374151"/>
  <path d="M129 150h14l-4 18h-6zM178 150h14l-4 18h-6z" fill="#d1d5db"/>
  <path d="M100 210h120l-10 16H110z" fill="#111827" stroke="#4b5563" stroke-width="4"/>
  <path d="M48 245h224v28c0 8-6 14-14 14H62c-8 0-14-6-14-14z" fill="#111827"/>
  <path d="M72 258h48v10H72z" fill="url(#accent)"/>
  <circle cx="238" cy="263" r="10" fill="#10b981"/>
  <path d="M250 75v158" stroke="#111827" stroke-width="8" opacity=".5"/>
  <path d="M69 97 250 86" stroke="#ffffff" stroke-width="7" opacity=".08"/>
</svg>
